# xmcd
#
# Track frame offsets: 
#        150
#        12979
#        28597
#        45651
#        62428
#        79769
#        96252
#        111006
#        131630
#        149717
#        162541
#        206524
#        220004
#        235676
#        249633
#        262487
#        281565
#        297028
#
# Disc length: 4208 seconds
#
# Revision: 1
# Processed by: cddbd v1.5.2PL0 Copyright (c) Steve Scherf et al.
# Submitted via: ExactAudioCopy v1.3
#
DISCID=0f106e12
DTITLE=ピエール・ポルト - プラチナム・ベスト ピエール・ポルト
DYEAR=2013
DGENRE=Easy Listening
TTITLE0=彼と彼女のソネット
TTITLE1=そして今は
TTITLE2=メモリー ～「キャッツ」より
TTITLE3=哀しみのテス
TTITLE4=愛のよろこび
TTITLE5=枯葉
TTITLE6=心のさざめき
TTITLE7=白い太陽
TTITLE8=夜は恋人
TTITLE9=愛の讃歌
TTITLE10=花束:第1楽章 バラのアンダンテ／第2楽章 アレグロ 蘭／第3楽章 アンダンテ 永遠の愛／第4楽章 ラルゴ 黄昏
TTITLE11=ラ・メール
TTITLE12=バラ色の人生（『愛の讃歌』より）
TTITLE13=アゲイン（黄金色の嵐）
TTITLE14=パリの空の下
TTITLE15=誓いのボレロ
TTITLE16=ライデーナイト・ファンタジー ～NTV系「金曜ロードショー」テーマ曲 
TTITLE17=妖精たちの午後
EXTD=
EXTT0=
EXTT1=
EXTT2=
EXTT3=
EXTT4=
EXTT5=
EXTT6=
EXTT7=
EXTT8=
EXTT9=
EXTT10=
EXTT11=
EXTT12=
EXTT13=
EXTT14=
EXTT15=
EXTT16=
EXTT17=
PLAYORDER=
